<svg width="300" height="200" xmlns="http://www.w3.org/2000/svg">
  <defs>
    <linearGradient id="puzzleMasterGrad" x1="0%" y1="0%" x2="0%" y2="100%">
      <stop offset="0%" style="stop-color:#4c1d95;stop-opacity:1" />
      <stop offset="50%" style="stop-color:#7c3aed;stop-opacity:1" />
      <stop offset="100%" style="stop-color:#1e1b4b;stop-opacity:1" />
    </linearGradient>
    <radialGradient id="masterAura" cx="50%" cy="50%" r="70%">
      <stop offset="0%" style="stop-color:#a855f7;stop-opacity:0.9" />
      <stop offset="100%" style="stop-color:#8b5cf6;stop-opacity:0.1" />
    </radialGradient>
  </defs>
  
  <!-- Master background -->
  <rect width="300" height="200" fill="url(#puzzleMasterGrad)"/>
  
  <!-- Master's aura -->
  <circle cx="150" cy="100" r="90" fill="url(#masterAura)"/>
  
  <!-- Puzzle pieces floating -->
  <path d="M 80 70 L 95 70 Q 100 65 105 70 L 120 70 L 120 85 Q 125 90 120 95 L 120 110 L 105 110 Q 100 115 95 110 L 80 110 Q 75 105 80 100 Q 75 95 80 90 Z" 
        fill="#8b5cf6" opacity="0.8"/>
  
  <path d="M 180 80 L 195 80 L 195 95 Q 200 100 195 105 L 195 120 Q 190 125 185 120 L 170 120 L 170 105 Q 165 100 170 95 L 170 80 Q 175 75 180 80 Z" 
        fill="#a855f7" opacity="0.7"/>
  
  <path d="M 100 130 Q 105 125 110 130 L 125 130 L 125 145 L 110 145 Q 105 150 100 145 L 85 145 Q 80 140 85 135 Q 80 130 85 125 L 100 125 Z" 
        fill="#c084fc" opacity="0.6"/>
  
  <path d="M 200 140 L 215 140 Q 220 135 225 140 L 225 155 Q 220 160 215 155 L 200 155 L 200 140 Z" 
        fill="#8b5cf6" opacity="0.8"/>
  
  <!-- Central master puzzle -->
  <rect x="130" y="90" width="40" height="40" fill="#1f2937"/>
  <rect x="135" y="95" width="30" height="30" fill="#4c1d95"/>
  
  <!-- Puzzle master's tools -->
  <rect x="140" y="100" width="20" height="3" fill="#fbbf24"/>
  <circle cx="145" cy="110" r="3" fill="#dc2626"/>
  <circle cx="155" cy="110" r="3" fill="#10b981"/>
  
  <!-- Game elements scattered -->
  <text x="60" y="50" fill="#a855f7" font-size="18" opacity="0.8">π§©</text>
  <text x="230" y="60" fill="#8b5cf6" font-size="16" opacity="0.7">π―</text>
  <text x="70" y="170" fill="#c084fc" font-size="14" opacity="0.6">π²</text>
  <text x="220" y="160" fill="#a855f7" font-size="12" opacity="0.5">π”®</text>
  <text x="50" y="120" fill="#8b5cf6" font-size="10" opacity="0.4">β΅</text>
  <text x="240" y="110" fill="#a855f7" font-size="14" opacity="0.6">π</text>
  
  <!-- Master challenge symbols -->
  <circle cx="150" cy="50" r="8" fill="#fbbf24" opacity="0.8"/>
  <text x="146" y="56" fill="#1e1b4b" font-size="8" font-weight="bold">M</text>
  
  <!-- Completion crown -->
  <polygon points="135,75 150,65 165,75 160,80 155,75 150,78 145,75 140,80" fill="#fbbf24" opacity="0.9"/>
  
  <!-- Title overlay -->
  <rect x="0" y="160" width="300" height="40" fill="rgba(0,0,0,0.7)"/>
  <text x="150" y="180" text-anchor="middle" fill="#a855f7" font-family="serif" font-size="14" font-weight="bold">νΌμ¦ λ§μ¤ν„°μ λ§μ§€λ§‰ κ²μ„</text>
</svg>